<svg width="50" height="50" viewBox="0 0 50 50" fill="none" xmlns="http://www.w3.org/2000/svg">
<g clip-path="url(#clip0)">
<path d="M25 50C38.8071 50 50 38.8071 50 25C50 11.1929 38.8071 0 25 0C11.1929 0 0 11.1929 0 25C0 38.8071 11.1929 50 25 50Z" fill="url(#paint0_linear)"/>
<g style="mix-blend-mode:multiply">
<path d="M15.8664 24.3081C15.8972 24.3388 15.9279 24.3682 15.9597 24.3962C16.4234 24.7274 16.9465 24.8915 17.4751 24.8714C17.8103 24.9452 18.1547 24.868 18.4516 24.6525C18.6252 24.432 18.7479 24.1526 18.8059 23.8459C18.8638 23.5393 18.8547 23.2176 18.7795 22.9173C18.6214 22.3182 18.5256 21.6943 18.4947 21.0621C18.6423 20.1033 19.034 19.2375 19.6064 18.6048C20.1134 17.941 20.4348 17.0748 20.5194 16.1449C20.5501 15.3761 20.007 14.4725 20.1966 13.7504C20.3103 13.3193 20.7192 13.1218 20.9548 12.7707C21.4344 12.054 21.0245 10.9114 20.3646 10.4483C19.6593 10.0736 18.9059 9.8762 18.1442 9.86636C17.8486 9.86966 17.5563 9.78646 17.2886 9.6229C17.021 9.45935 16.785 9.2196 16.5981 8.92136C16.5182 8.66407 16.4208 8.4166 16.307 8.18192C15.9125 7.58263 15.098 7.91497 14.6297 8.43151C13.145 10.0639 10.9133 10.7366 9.53927 8.36078C9.34971 8.03244 9.17758 7.64404 8.88658 7.49588C8.46135 7.28099 8.01048 7.67474 7.65083 8.04846C5.61281 10.1667 3.57686 11.0409 2.90264 14.7448C2.63426 16.1618 2.65652 17.6457 2.9672 19.048C3.2039 19.829 3.39535 20.6321 3.53996 21.4505C3.63013 22.2513 3.5287 23.0842 3.67522 23.8717C3.82175 24.6592 4.36378 25.4266 4.95808 25.2464C5.80238 24.9888 5.99604 23.4098 6.71534 22.8573C7.28401 22.4195 8.86094 22.0805 9.27695 22.9681C9.41513 23.459 9.44774 23.9897 9.37123 24.503C9.37168 24.9715 9.46514 25.432 9.64252 25.8396C9.8199 26.2473 10.0752 26.5882 10.3836 26.8294C10.6008 26.9923 10.859 27.1217 10.9717 27.4194C11.0167 27.5955 11.029 27.7832 11.0074 27.9667C10.9859 28.1503 10.9312 28.3245 10.8477 28.4751C10.3518 29.6337 9.39275 30.0274 8.88658 31.0992C8.06686 32.8344 8.7257 35.1688 9.70628 36.7558C10.6869 38.3428 11.981 39.6295 12.6521 41.4781C12.9073 42.426 13.2187 43.3466 13.5835 44.2316C13.7701 44.6635 14.0675 44.996 14.4235 45.1707C14.7795 45.3455 15.1714 45.3513 15.5304 45.1873C16.4525 44.5493 16.2476 42.7674 16.3316 41.3873C16.5191 38.3962 18.677 36.0818 18.7682 33.084C18.8228 32.5054 18.7326 31.9195 18.5111 31.413C18.2896 30.9066 17.9486 30.5068 17.5387 30.273C17.1288 30.1262 16.6093 30.1756 16.3962 29.6924C16.2619 29.3908 16.3193 29.0064 16.2517 28.6687C16.057 27.6997 14.2403 27.075 13.5579 26.9669C13.2249 26.9135 12.8407 26.8601 12.6593 26.4811C12.5568 26.2555 12.5507 25.9605 12.4359 25.7429C12.2238 25.3425 11.7259 25.3612 11.5271 24.9501C11.4473 24.7474 11.4145 24.5187 11.4328 24.2921C11.4492 23.1202 12.023 22.0644 12.9811 22.557C13.2772 22.7631 13.5917 22.9209 13.9176 23.0268C14.1491 23.0668 14.3879 23.0068 14.6174 23.0682C15.1359 23.2043 15.4443 23.8837 15.8664 24.3081Z" fill="#FFD885"/>
</g>
<g style="mix-blend-mode:multiply">
<path d="M37.0685 7.26221C36.4697 7.11383 35.8572 7.08458 35.2518 7.17545C34.9069 7.25831 34.5573 7.30297 34.2066 7.30893C33.8809 7.2626 33.5578 7.18903 33.2394 7.08869C31.5661 6.70696 31.0026 7.76673 29.8498 8.7878C28.7955 9.72211 27.4603 9.08678 26.3373 9.79552C25.8612 10.0886 25.4818 10.5951 25.2686 11.2223C25.0032 12.0846 25.3977 12.7453 25.1446 13.5421C24.9604 13.9435 24.8379 14.3878 24.784 14.8501C24.8076 15.046 24.8076 15.2455 24.784 15.4414C24.7261 15.6181 24.6286 15.768 24.5042 15.8712C23.8444 16.5252 22.9611 17.1472 22.9386 18.227C22.9294 18.6928 23.0974 19.136 23.12 19.6005C23.1568 20.3786 22.791 21.2021 23.0534 21.9042C23.1617 22.1342 23.3108 22.327 23.4882 22.4664C23.6656 22.6057 23.8661 22.6876 24.0729 22.705C24.8046 22.7715 25.5389 22.6402 26.2298 22.3193C26.8609 22.087 27.5823 21.748 27.7862 20.9365C27.9747 20.1917 27.6448 19.2761 27.9911 18.6341C28.4553 17.7772 30.3652 17.3634 30.3099 18.9705C30.2986 19.2988 30.1777 19.6378 30.274 19.9421C30.3553 20.1273 30.4631 20.2904 30.5917 20.4226C30.7916 20.6998 30.9179 21.0534 30.9519 21.4312C30.9858 21.809 30.9256 22.191 30.7802 22.5208C29.8447 24.5363 27.5188 24.7218 26.7411 27.1123C25.7523 30.1515 26.4511 36.2539 28.7781 38.1332C28.9107 38.2199 29.0287 38.3402 29.1254 38.4869C29.2343 38.7609 29.2596 39.0785 29.1961 39.3758C29.052 40.6215 28.9078 41.8642 28.7637 43.1037C28.694 43.699 28.6674 44.4291 29.0496 44.7681C29.2248 44.8732 29.4166 44.9231 29.6093 44.9139C29.8021 44.9046 29.9905 44.8363 30.1593 44.7147C32.0717 43.8739 33.7831 42.3986 35.1247 40.4342C36.5469 38.4161 36.6422 36.741 37.5183 34.4079C37.8349 33.5657 38.4804 32.9851 38.7724 32.1282C39.0065 31.1897 39.0193 30.1813 38.8093 29.2332L38.4743 26.868C38.4432 26.2287 38.2293 25.6277 37.8748 25.1836C37.5203 24.8473 36.9762 24.7965 36.7898 24.28C36.716 24.0771 36.717 23.8382 36.6371 23.6393C36.4987 23.2936 36.1719 23.1775 35.9044 23.004C35.3061 22.6183 35.4762 21.8588 35.6596 21.2048C35.7679 20.7601 35.9749 20.3671 36.2544 20.0754C36.534 19.7837 36.8735 19.6064 37.2303 19.5657C38.4825 19.5551 39.0962 21.5678 40.169 22.41C40.6769 22.7534 41.23 22.9685 41.7993 23.044C43.9766 23.5125 46.7739 24.3094 48.7873 22.5328C49.07 22.2441 49.2706 21.8407 49.3572 21.3866C49.4439 20.9326 49.4118 20.4538 49.2658 20.0262C48.6408 17.6558 46.7503 16.3784 45.8763 14.2081C45.3968 13.0176 45.4183 12.3876 44.5443 11.6201C43.451 10.781 42.3221 10.0235 41.1629 9.35107C39.8831 8.39971 38.5039 7.69605 37.0685 7.26221Z" fill="#FFD885"/>
</g>
<g style="mix-blend-mode:multiply" opacity="0.2">
<path d="M28.3987 47.419C23.3407 47.4239 18.4008 45.8897 14.2347 43.0199C10.0685 40.1501 6.87305 36.0805 5.07243 31.3511C3.2718 26.6218 2.95115 21.4563 4.15301 16.5404C5.35488 11.6244 8.02246 7.19038 11.8017 3.82678C8.8586 5.65231 6.32762 8.07094 4.36983 10.9287C2.41204 13.7865 1.07031 17.0208 0.430079 20.4258C-0.21015 23.8308 -0.134861 27.3318 0.651129 30.7061C1.43712 34.0804 2.9166 37.254 4.9954 40.0248C7.07421 42.7957 9.70683 45.1032 12.7256 46.8004C15.7444 48.4976 19.0833 49.5473 22.5297 49.8828C25.9762 50.2182 29.4547 49.8321 32.7438 48.7488C36.0329 47.6656 39.0606 45.9091 41.6341 43.591C37.6722 46.0922 33.0833 47.4194 28.3987 47.419Z" fill="#222226"/>
</g>
<g style="mix-blend-mode:overlay" opacity="0.2">
<path d="M25.0383 3.32761e-05C22.5493 -0.000914375 20.0741 0.370698 17.695 1.10252C15.0269 2.93716 12.7771 5.31621 11.0938 8.08319C9.4105 10.8502 8.33172 13.9424 7.92842 17.1565C7.52512 20.3705 7.80642 23.6336 8.75387 26.7311C9.70132 29.8286 11.2934 32.6902 13.4255 35.1279C15.5575 37.5655 18.1812 39.5239 21.1239 40.8743C24.0666 42.2246 27.2617 42.9363 30.499 42.9624C33.7363 42.9886 36.9425 42.3287 39.9066 41.0262C42.8707 39.7236 45.5257 37.8079 47.6969 35.4051C49.455 31.6025 50.2272 27.4179 49.9421 23.2379C49.6571 19.0578 48.3239 15.017 46.0659 11.4886C43.8078 7.96026 40.6975 5.05809 37.0224 3.05014C33.3473 1.04219 29.2257 -0.00681077 25.0383 3.32761e-05V3.32761e-05Z" fill="white"/>
</g>
</g>
<defs>
<linearGradient id="paint0_linear" x1="10.55" y1="7.45" x2="42" y2="45.6" gradientUnits="userSpaceOnUse">
<stop stop-color="#7FC8EF"/>
<stop offset="0.891" stop-color="#5895FF"/>
</linearGradient>
<clipPath id="clip0">
<rect width="50" height="50" fill="white"/>
</clipPath>
</defs>
</svg>
