<svg width="50" height="50" viewBox="0 0 50 50" fill="none" xmlns="http://www.w3.org/2000/svg">
<g clip-path="url(#clip0)">
<path d="M24.9981 49.9961C38.8041 49.9961 49.9961 38.8041 49.9961 24.9981C49.9961 11.192 38.8041 0 24.9981 0C11.192 0 0 11.192 0 24.9981C0 38.8041 11.192 49.9961 24.9981 49.9961Z" fill="url(#paint0_linear)"/>
<g style="mix-blend-mode:multiply" opacity="0.2">
<path d="M28.4967 48.4499C22.9367 48.449 17.5356 46.5951 13.1471 43.1813C8.75854 39.7674 5.63291 34.9884 4.26421 29.5995C2.89552 24.2106 3.36183 18.5193 5.58944 13.4251C7.81706 8.33082 11.6789 4.12429 16.5646 1.47034C13.3224 2.63327 10.3553 4.45351 7.84956 6.81691C5.34379 9.18032 3.3533 12.0359 2.00291 15.2047C0.652516 18.3734 -0.028655 21.787 0.00209521 25.2314C0.0328454 28.6757 0.774858 32.0766 2.18161 35.2208C3.58836 38.3649 5.62952 41.1845 8.17709 43.5028C10.7247 45.8211 13.7237 47.5881 16.9862 48.6929C20.2487 49.7978 23.7043 50.2167 27.1363 49.9234C30.5683 49.6302 33.9027 48.631 36.9304 46.9886C34.2243 47.9578 31.3711 48.4521 28.4967 48.4499V48.4499Z" fill="#222226"/>
</g>
<g style="mix-blend-mode:overlay" opacity="0.2">
<path d="M24.9986 0.00787049C21.7018 0.00411366 18.4371 0.654597 15.3935 1.92163C11.4724 6.08864 9.09916 11.4744 8.66987 17.1801C8.24057 22.8858 9.78121 28.5661 13.0346 33.2729C16.288 37.9797 21.0574 41.4282 26.5466 43.0429C32.0358 44.6576 37.9128 44.3407 43.1966 42.1452C46.5438 38.5927 48.7777 34.1379 49.6226 29.3305C50.4675 24.5232 49.8864 19.5737 47.9511 15.0927C46.0158 10.6118 42.8109 6.79549 38.7319 4.11477C34.6529 1.43405 29.8783 0.00621465 24.9973 0.00744709L24.9986 0.00787049Z" fill="white"/>
</g>
<g style="mix-blend-mode:multiply" opacity="0.8">
<path d="M25.2292 0.0548096C20.5334 0.0548097 17.1182 0.908596 13.4896 2.82961C10.9283 3.89685 7.94002 6.67165 7.3468 7.35887C7.53504 8.04794 7.92174 8.64412 8.44411 9.05064C9.09935 9.59088 9.86858 9.92253 10.673 10.0116C11.4774 10.1007 12.2882 9.9441 13.0221 9.55775C14.0327 9.00861 15.1985 8.0183 16.1192 8.74484C16.7329 9.22881 16.822 10.2457 17.3459 10.8519C18.1679 11.8033 19.6577 11.2869 20.4328 10.2866C21.2079 9.28626 21.5605 7.95043 22.2184 6.84559C23.8335 4.13305 26.9714 3.25226 29.8391 3.05674C30.7057 2.99774 31.6078 2.98887 32.4002 3.3934C33.1925 3.79793 33.844 4.72499 33.744 5.70951C33.5954 7.18032 31.9638 8.00943 31.8149 9.48062C31.7075 10.5419 32.4674 11.5121 33.3428 11.8908C34.2182 12.2695 35.1848 12.1993 36.12 12.1631C37.7391 12.0979 39.4332 12.1588 40.8622 13.0304C42.2912 13.9019 43.3557 15.8116 42.9258 17.5951C42.5229 19.268 41.0081 20.2641 39.5426 20.7234C38.0772 21.1827 36.5118 21.2995 35.1548 22.0793C33.4164 23.0769 32.1888 25.0695 30.3589 25.8296C29.3328 26.2557 28.2018 26.2538 27.1676 26.6544C26.1335 27.0551 25.1344 28.1048 25.2715 29.3423C25.4215 30.6989 26.8468 31.4066 28.039 31.2704C29.2312 31.1343 30.3211 30.4498 31.494 30.1729C33.3276 29.7391 35.2264 30.3295 36.9718 31.1046C38.0286 31.5736 39.0935 32.1377 39.8551 33.0964C40.6167 34.0551 41.0108 35.4989 40.5454 36.6801C39.9854 38.1027 38.4534 38.6414 37.0883 38.7213C35.7232 38.8011 34.2979 38.5971 33.0355 39.1956C31.773 39.7941 30.8243 41.6505 31.6018 42.9339C32.1901 43.905 33.4063 44.023 34.431 43.8595C35.4557 43.6959 36.5229 43.3562 37.4983 43.7503C38.3741 44.104 39.1411 45.0337 40.057 44.8563C40.5455 44.7027 40.9841 44.3898 41.3191 43.9559C43.4932 41.629 45.701 39.2214 47.0222 36.1722C48.8416 31.9735 48.771 27.0755 48.6612 22.3924C48.5873 19.2225 48.2988 16.1256 47.0583 13.2885C45.9728 10.8039 44.1236 8.88384 42.3049 7.04089C41.4302 6.15394 40.4136 5.36329 39.3167 4.90014C37.6932 4.2141 36.1102 4.28306 34.5327 3.46975C32.7636 2.55735 31.2489 1.44115 29.4981 0.481693C27.7905 0.0548095 26.2964 0.0548095 25.2292 0.0548096Z" fill="#BA98D3"/>
</g>
<g style="mix-blend-mode:multiply" opacity="0.8">
<path d="M19.3602 16.0684C18.8017 16.2765 18.2216 16.4241 17.6303 16.5085C16.4567 16.6655 15.2329 16.5103 14.1053 16.8652C13.274 17.127 12.5575 17.6478 11.777 18.0306C8.16057 19.803 7.04985 15.5559 3.91853 15.3519C2.74874 15.2765 1.83985 15.8558 1.32315 16.8843C1.25795 17.3439 0.896253 18.1977 0.682807 19.2649L0.491107 20.7699C0.445923 21.1231 0.4713 21.4814 0.565835 21.8251C0.705028 22.224 1.02091 22.5355 1.25795 22.8877C2.17092 24.2443 1.8458 26.028 1.52529 27.622C1.20479 29.216 0.978794 31.0431 2.02197 32.3067C2.4904 32.8742 3.15786 33.2438 3.80888 33.6003C4.58753 34.0273 5.48689 34.466 6.33335 34.1894C6.89114 34.0067 7.30204 33.5447 7.81644 33.2651C8.40702 32.9743 9.09062 32.9216 9.72048 33.1183C10.3503 33.315 10.8763 33.7455 11.1853 34.3172C11.4286 34.8761 11.5195 35.4871 11.4491 36.0906C11.3648 37.2023 10.995 38.2742 10.8402 39.3783C10.6853 40.4824 10.779 41.6999 11.5025 42.561C12.3923 43.6209 14.0462 43.837 15.357 43.3514C16.6678 42.8658 17.6778 41.8106 18.4616 40.6736C19.0284 39.8514 19.6227 38.8839 20.6188 38.6968C21.3335 38.5626 22.1928 38.8495 22.7268 38.3654C23.0634 38.0604 23.1156 37.5628 23.112 37.1136C23.0991 35.6897 22.7781 34.1241 23.5966 32.9463C24.5468 31.5782 23.3934 29.1454 24.8023 28.2297C25.1318 28.0154 26.9283 26.2918 26.5098 25.4549C25.8695 24.1742 24.0722 24.5052 23.3081 24.3877C20.3199 24.3877 20.7468 28.3535 18.892 28.9092C17.5823 29.3016 16.2656 29.8465 14.9009 29.7355C14.5444 29.7064 14.1466 29.6008 13.9787 29.2918C13.8795 29.0619 13.8686 28.8045 13.9481 28.5673C14.0761 28.0672 14.3191 27.6023 14.6586 27.2079C14.998 26.8136 15.4251 26.5002 15.9071 26.2918C16.5455 26.022 17.2682 25.9423 17.8571 25.5793C18.4459 25.2163 18.8363 24.3827 18.3982 23.8542C18.0443 23.4271 17.3917 23.4467 16.8342 23.3796C16.2766 23.3125 15.6143 22.9292 15.7363 22.3931C15.7876 22.2202 15.8885 22.0654 16.027 21.9469C17.2643 20.7579 19.2693 21.0601 20.9807 20.7855C22.7298 20.5052 24.7222 19.0348 26.0699 17.995C26.7633 17.4594 28.3813 16.2779 28.392 15.3383C28.408 13.7835 26.2091 13.5773 25.0994 13.7808C23.0655 14.1505 21.2863 15.3725 19.3602 16.0684Z" fill="#BA98D3"/>
</g>
</g>
<defs>
<linearGradient id="paint0_linear" x1="0" y1="24.9981" x2="49.9961" y2="24.9981" gradientUnits="userSpaceOnUse">
<stop stop-color="#BA98D3"/>
<stop offset="1" stop-color="#BA5970"/>
</linearGradient>
<clipPath id="clip0">
<rect width="50" height="50" fill="white"/>
</clipPath>
</defs>
</svg>
