<svg width="50" height="50" viewBox="0 0 50 50" fill="none" xmlns="http://www.w3.org/2000/svg">
<g clip-path="url(#clip0)">
<path d="M25.1525 50.0001C38.8754 50.0001 50.0001 38.8754 50.0001 25.1525C50.0001 11.4296 38.8754 0.304932 25.1525 0.304932C11.4296 0.304932 0.304932 11.4296 0.304932 25.1525C0.304932 38.8754 11.4296 50.0001 25.1525 50.0001Z" fill="url(#paint0_linear)"/>
<g style="mix-blend-mode:multiply" opacity="0.5">
<path d="M13.5117 9.62799C13.2891 10.747 13.4024 12.2555 14.353 12.5921C14.6216 12.6493 14.8977 12.6409 15.1633 12.5675C15.4289 12.494 15.6783 12.357 15.8954 12.1654C17.132 11.2807 18.1231 9.9898 19.3722 9.13159C20.6213 8.27338 22.3425 7.94283 23.4564 9.0222C24.6909 10.2242 24.5505 12.4995 23.888 14.1991C23.2525 15.4231 22.7716 16.7458 22.46 18.1272C22.3892 18.7071 22.4288 19.298 22.5759 19.8585C22.723 20.419 22.9741 20.9357 23.3118 21.3725C23.6562 21.8027 24.0889 22.1256 24.57 22.3113C25.051 22.497 25.5648 22.5396 26.0638 22.435C26.8091 22.2046 27.4955 21.7701 28.0648 21.1682C29.231 20.0701 30.2683 18.8009 31.1505 17.3928C32.7574 14.8265 34.126 11.562 36.7833 10.7819C37.6449 10.558 38.5433 10.6125 39.3799 10.9397C40.2165 11.2669 40.9589 11.8539 41.5258 12.6365C42.077 13.4335 42.4552 14.3713 42.6289 15.3716C42.8026 16.3719 42.7667 17.4058 42.5243 18.3868C42.3954 19.0236 42.1156 19.6063 41.7162 20.0696C41.2383 20.5049 40.6769 20.8009 40.0792 20.9326C37.8311 21.3994 35.6283 22.1217 33.5031 23.0889C33.1061 23.26 32.7453 23.5269 32.4445 23.8718C32.1438 24.2166 31.9101 24.6316 31.7589 25.089C31.6527 26.0263 31.8437 26.9763 32.2966 27.7634C32.6214 28.6676 33.1519 29.4534 33.8317 30.0375C35.1942 31.0075 36.9518 30.225 38.3922 29.4305L46.3703 25.0493C46.9182 24.8181 47.3974 24.4106 47.7515 23.875C47.972 23.381 48.0848 22.8322 48.0801 22.2764C48.2683 19.9853 48.1632 17.6747 47.7681 15.4191C47.364 13.1507 46.3438 11.0906 44.856 9.53906C43.0867 7.99302 40.9668 7.07435 38.7542 6.89472C36.5701 6.58822 34.3445 6.61585 32.1739 6.17353C31.36 6.05802 30.5785 5.73491 29.8859 5.22757C29.3276 4.6879 28.8185 4.08378 28.3664 3.42461C23.6498 -2.4266 14.846 2.91136 13.5117 9.62799Z" fill="#D16111"/>
</g>
<g style="mix-blend-mode:multiply" opacity="0.5">
<path d="M32.9313 18.1403C32.9813 18.4123 33.1073 18.6594 33.291 18.8458C33.4746 19.0321 33.7065 19.1481 33.9528 19.1768C34.1286 19.214 34.3087 19.2172 34.4854 19.1861C35.6278 19.0048 36.6731 18.3661 37.4281 17.3879C37.6731 17.0068 37.8049 16.5488 37.8049 16.079C37.8049 15.6092 37.6731 15.1513 37.4281 14.7701C37.2776 14.5489 37.0629 14.3935 36.8212 14.3307C36.5808 14.3186 36.3422 14.3807 36.1312 14.5104C35.9202 14.64 35.745 14.8321 35.6248 15.0657C35.39 15.5353 35.0965 15.9647 34.7532 16.341C34.4041 16.583 34.0306 16.7776 33.6406 16.9207C33.4171 17.0047 33.2255 17.1709 33.0968 17.3922C32.968 17.6136 32.9097 17.8772 32.9313 18.1403V18.1403Z" fill="#D16111"/>
</g>
<g style="mix-blend-mode:multiply" opacity="0.5">
<path d="M16.0269 16.825C15.6249 17.7091 15.4704 18.7263 15.5863 19.725C15.6715 20.2084 15.8587 20.6579 15.9298 21.1424C16.0349 21.8565 15.9188 22.7133 16.3644 23.1966C16.5139 23.3415 16.6935 23.4341 16.8836 23.4646C17.0737 23.4951 17.2671 23.4621 17.4428 23.3694C17.7928 23.1763 18.0883 22.8638 18.2929 22.4704C18.7486 21.6685 18.9705 20.7066 18.9238 19.7359C18.7984 19.0072 18.7797 18.2575 18.8687 17.521C19.1541 16.7771 19.5901 16.1318 20.1364 15.6445C21.0856 14.5255 21.7605 11.3452 19.6127 11.9711C18.0526 12.4327 16.6508 15.2191 16.0269 16.825Z" fill="#D16111"/>
</g>
<g style="mix-blend-mode:multiply" opacity="0.5">
<path d="M12.7625 16.1621C13.2617 17.1905 13.473 18.3726 13.3673 19.5457C13.1719 20.9646 12.2896 22.3582 12.7053 23.7121C12.9059 24.3626 13.3798 24.8568 13.6042 25.4965C14.0885 26.8708 13.3122 28.357 12.6835 29.6496C11.5843 31.565 11.1866 33.9066 11.5777 36.1607C12.1264 38.3419 14.3452 40.0289 16.115 39.0465C17.7954 38.1122 18.1591 35.4224 17.5699 33.3759C16.9194 31.1118 15.5403 27.9001 18.2849 26.6039C20.1898 25.7045 22.2153 27.1811 23.1101 29.0761C23.3843 29.9015 23.8693 30.6108 24.5005 31.1093C25.8993 31.9029 27.507 30.1101 29.0347 30.4649C31.5964 31.0589 31.718 35.5763 32.1264 37.8357C32.2598 38.441 32.3237 39.064 32.3165 39.6886C32.196 42.0994 30.1082 43.6566 28.2012 44.6449C26.1185 45.7171 23.9636 46.5905 21.758 47.2566C19.7038 48.1651 17.4732 48.4023 15.3103 47.9421C13.1474 47.4818 11.1356 46.342 9.49513 44.6474C7.62452 43.0289 5.77575 41.0834 5.12104 38.485C4.67612 36.2535 4.84507 33.9169 5.60428 31.8019C6.07858 30.564 6.4078 29.2582 6.58321 27.9193C6.58936 26.3749 6.32347 24.8451 5.80173 23.4235C4.86643 20.3165 4.65858 17.1637 6.85862 14.6555C8.87368 12.3625 11.5985 13.4699 12.7625 16.1621Z" fill="#D16111"/>
</g>
<g style="mix-blend-mode:multiply" opacity="0.5">
<path d="M28.9621 26.3289C29.0278 24.7981 26.4439 24.3658 25.633 24.9364C23.907 26.1517 24.771 28.3749 26.5429 28.3522C27.0879 28.37 27.6271 28.2143 28.1064 27.9011C28.3435 27.7415 28.5452 27.5152 28.6941 27.2415C28.8431 26.9678 28.9351 26.6547 28.9621 26.3289V26.3289Z" fill="#D16111"/>
</g>
<g style="mix-blend-mode:multiply" opacity="0.2">
<path d="M28.3824 46.8334C23.5677 46.8392 18.8536 45.4616 14.8065 42.8659C10.7594 40.2702 7.55133 36.5669 5.56763 32.2008C3.58393 27.8346 2.90899 22.9914 3.62384 18.2528C4.33869 13.5141 6.41296 9.08169 9.59748 5.48779C6.85194 7.62703 4.58594 10.3137 2.94481 13.3756C1.30368 16.4374 0.323653 19.8068 0.0675762 23.2676C-0.1885 26.7285 0.284993 30.2044 1.45776 33.4725C2.63052 36.7405 4.47666 39.7286 6.87772 42.245C9.27878 44.7615 12.1818 46.7507 15.4005 48.0851C18.6193 49.4196 22.0828 50.0698 25.5688 49.9941C29.0549 49.9183 32.4865 49.1184 35.6437 47.6454C38.8009 46.1725 41.614 44.0591 43.9024 41.4409C39.4909 44.9338 34.0197 46.8348 28.3824 46.8334V46.8334Z" fill="#222226"/>
</g>
<g style="mix-blend-mode:overlay" opacity="0.39">
<path d="M25.0854 3.23874e-06C21.143 0.000491736 17.2577 0.946948 13.752 2.76079C10.0595 7.187 8.00223 12.7611 7.92891 18.5384C7.85559 24.3158 9.7707 29.9409 13.3497 34.4604C16.9288 38.98 21.9515 42.1159 27.5668 43.3369C33.182 44.5578 39.0442 43.7885 44.16 41.1595C47.212 37.508 49.1636 33.0557 49.7853 28.3266C50.4069 23.5975 49.6726 18.7881 47.6689 14.4644C45.6651 10.1407 42.4753 6.48241 38.4745 3.91998C34.4738 1.35756 29.8285 -0.00242227 25.0854 3.23874e-06Z" fill="white"/>
</g>
</g>
<defs>
<linearGradient id="paint0_linear" x1="0.304932" y1="25.1525" x2="50.0001" y2="25.1525" gradientUnits="userSpaceOnUse">
<stop stop-color="#FFA000"/>
<stop offset="1" stop-color="#FF3D00"/>
</linearGradient>
<clipPath id="clip0">
<rect width="50" height="50" fill="white"/>
</clipPath>
</defs>
</svg>
