<svg width="50" height="50" viewBox="0 0 50 50" fill="none" xmlns="http://www.w3.org/2000/svg">
<g clip-path="url(#clip0)">
<path d="M25 50.0001C38.8071 50.0001 50 38.8073 50 25.0003C50 11.1933 38.8071 0.000488281 25 0.000488281C11.1929 0.000488281 0 11.1933 0 25.0003C0 38.8073 11.1929 50.0001 25 50.0001Z" fill="url(#paint0_linear)"/>
<g style="mix-blend-mode:multiply" opacity="0.11">
<path d="M9.50445 18.6169C10.7092 19.2117 11.7953 20.185 13.2011 20.5181C14.9794 20.9048 16.8016 20.977 18.6003 20.7322C22.0086 20.3224 25.3049 19.1492 28.6933 18.5726C30.5656 18.2541 32.4871 18.1114 34.2598 17.3704C36.2129 16.5524 37.8678 15.0537 39.7233 13.9884C41.5788 12.9231 43.87 12.3157 45.7242 13.3825C41.3864 14.8324 38.2172 18.9149 34.232 21.3064C32.0119 22.6388 29.5612 23.4293 27.315 24.7021C25.8069 25.5568 24.3634 26.64 22.7068 27.0318C21.2482 27.3752 19.7369 27.1543 18.247 27.1673C14.498 27.2098 10.8813 28.7117 8.02725 31.4112C11.6746 30.831 15.3218 30.2514 18.969 29.6725C20.3478 29.3988 21.7486 29.2847 23.1487 29.3322C24.2696 29.4127 25.3822 29.7 26.5027 29.6248C30.5522 29.3558 33.5564 24.5484 37.6125 24.561C37.764 25.8529 36.8015 26.9399 35.9198 27.8018C33.3736 30.2959 30.7515 32.8382 27.5738 34.1701C22.603 36.2492 17.0341 35.0725 11.7915 36.0202C8.90071 36.5418 5.54841 37.5846 3.33347 35.4567C-0.0318885 32.225 2.137 26.376 3.46198 22.7269C4.35847 20.2598 6.16314 17.4124 8.87116 18.3475C9.0866 18.4242 9.29802 18.5141 9.50445 18.6169V18.6169Z" fill="black"/>
<path d="M18.4889 6.16394C16.4068 6.6829 14.2306 7.37502 12.0658 7.5371C10.0707 7.68655 8.36518 7.77571 6.46675 8.51627C6.18342 8.62629 5.86778 8.78322 5.82348 9.04398C5.77642 9.32202 6.06959 9.55933 6.36062 9.70028C8.08123 10.5382 10.2295 9.91029 12.2039 9.70028C13.8934 9.51991 15.6064 9.66807 17.3079 9.59721C21.5072 9.42431 25.444 7.94345 29.4621 6.90553C30.1038 6.73985 30.7886 6.5855 31.4377 6.73006C32.0868 6.87461 32.6476 7.44073 32.4557 7.97953C32.2896 8.30501 31.9946 8.57258 31.6204 8.73709C26.0297 11.8429 18.9205 12.4067 12.2436 11.8578C11.1976 11.7712 9.84154 11.8109 9.47976 12.6375C15.2554 14.5711 21.7024 14.5477 27.4578 12.5721C29.1498 11.9825 30.9904 11.2139 32.7224 11.7143C32.7682 12.3768 31.8164 12.7228 31.0507 12.8921C27.3933 13.7028 23.8575 14.8583 20.511 16.3365C21.2472 17.3463 23.0223 17.2077 24.3916 16.9173C29.8983 15.7492 35.4819 14.0736 39.4966 10.7106C40.3509 9.99507 41.1757 9.05197 40.9293 8.06095C40.7065 7.16862 39.703 6.5922 38.7807 6.10829C36.9144 5.13067 35.048 4.15261 33.1817 3.17413C30.1995 1.61185 29.7334 2.39312 27.1212 3.60162C24.4989 4.81553 21.3472 5.45095 18.4889 6.16394Z" fill="black"/>
<path d="M47.7009 19.4325C47.5833 18.6835 46.8606 17.321 45.9484 17.6611C45.5891 17.8313 45.277 18.0933 45.0414 18.4226C43.3644 20.3932 41.3096 21.5988 38.9861 22.6691C37.3707 22.6691 33.9412 24.5666 32.4753 25.3594C30.8371 26.2432 29.3657 27.3886 27.7012 28.2945C27.2154 28.5353 26.7578 28.8331 26.3372 29.1821C25.9612 29.5183 25.6552 29.9383 25.2579 30.2483C24.1541 31.1176 22.6229 30.9805 21.2483 30.8016C21.1551 30.9287 21.1142 31.089 21.1343 31.2474C21.1544 31.4058 21.234 31.5496 21.3557 31.6473C21.6075 31.8329 21.9064 31.9371 22.215 31.947C25.0024 32.2619 27.8192 31.7656 30.3508 30.5133C33.8249 28.8616 37.4457 27.566 41.1619 26.6449C38.6031 30.2622 35.1806 33.1234 31.2322 34.946C27.2526 36.7738 22.7563 36.61 18.6573 35.2419C18.1257 35.0281 17.5769 34.8637 17.0173 34.7507C16.5145 34.6795 15.9996 34.7343 15.4968 34.6631C14.0643 34.462 12.9216 33.2923 11.5209 32.9225C11.4681 34.4202 12.8252 35.5362 14.117 36.2026C14.8139 36.5989 15.5769 36.8542 16.3654 36.955C16.8631 36.9441 17.3604 36.9937 17.847 37.1028C19.2865 37.5906 20.069 38.9656 21.6437 39.3783C23.8305 39.9518 26.3581 39.6944 28.5536 39.3201C32.479 38.6451 36.2308 37.1462 39.5802 34.9148C39.0979 36.6563 38.1538 38.2216 36.8557 39.4318C35.5576 40.642 33.9579 41.4482 32.2396 41.7582C31.3553 41.9045 30.4538 41.9136 29.5783 42.109C27.9874 42.4635 26.5442 43.4204 24.9273 43.6066C22.9374 43.835 20.6857 42.9254 19.0531 44.129C21.7821 45.7262 24.8357 46.6305 27.9651 46.7682C35.4144 47.0877 42.8356 42.6462 46.4179 35.8519C46.5539 35.65 46.6186 35.4054 46.6011 35.1596C46.5655 35.0368 46.5052 34.9232 46.4243 34.8262C46.3434 34.7293 46.2437 34.6512 46.1316 34.5972C44.6005 33.6875 41.9835 34.3379 41.4858 32.5791C41.2399 31.7097 41.8303 30.7875 42.5853 30.3324C43.3402 29.8774 44.2289 29.7517 45.0707 29.5141C47.0237 28.9662 48.8711 27.6841 49.7184 25.7756C50.0115 25.1107 50.1614 24.2726 49.7341 23.69C49.416 23.2536 48.8623 23.0808 48.4808 22.7057C47.6763 21.9125 47.8783 20.5664 47.7009 19.4325Z" fill="black"/>
</g>
<g style="mix-blend-mode:multiply" opacity="0.2">
<path d="M28.6761 46.6932C23.8119 46.6976 19.0538 45.2624 14.9933 42.5659C10.9328 39.8695 7.74907 36.0308 5.8381 31.5271C3.92713 27.0235 3.37318 22.0537 4.24513 17.2357C5.11708 12.4176 7.37646 7.9639 10.7423 4.42834C7.88114 6.4121 5.46548 8.97854 3.65162 11.9616C1.83776 14.9446 0.666114 18.2779 0.212493 21.7456C-0.241127 25.2133 0.0333774 28.7383 1.01825 32.0925C2.00313 35.4467 3.67643 38.5553 5.9299 41.2173C8.18336 43.8793 10.9668 46.0353 14.1001 47.5458C17.2334 49.0564 20.6468 49.8878 24.1194 49.9863C27.592 50.0849 31.0464 49.4483 34.2592 48.1178C37.4721 46.7873 40.3717 44.7926 42.7705 42.2626C38.6308 45.1516 33.713 46.6975 28.6761 46.6932V46.6932Z" fill="#222226"/>
</g>
<g style="mix-blend-mode:overlay" opacity="0.3">
<path d="M25.1424 0C21.6343 0.00132353 18.1668 0.755297 14.9708 2.2117C11.3619 6.54832 9.3219 11.9899 9.18465 17.6458C9.0474 23.3017 10.821 28.8371 14.2152 33.3459C17.6095 37.8548 22.4233 41.0702 27.8689 42.4659C33.3145 43.8616 39.0694 43.355 44.1917 41.0289C47.221 37.3813 49.1541 32.9395 49.7642 28.2246C50.3744 23.5098 49.6361 18.7175 47.6362 14.4102C45.6362 10.103 42.4575 6.45936 38.4732 3.90702C34.4888 1.35468 29.864 -0.000516686 25.1415 0.000474397L25.1424 0Z" fill="white"/>
</g>
</g>
<defs>
<linearGradient id="paint0_linear" x1="0" y1="25.0003" x2="50" y2="25.0003" gradientUnits="userSpaceOnUse">
<stop stop-color="#6F88A3"/>
<stop offset="0.994" stop-color="#49568B"/>
</linearGradient>
<clipPath id="clip0">
<rect width="50" height="50" fill="white"/>
</clipPath>
</defs>
</svg>
