<svg width="50" height="50" viewBox="0 0 50 50" fill="none" xmlns="http://www.w3.org/2000/svg">
<g clip-path="url(#clip0)">
<path d="M25 49.9999C38.807 49.9999 49.9999 38.8071 49.9999 25C49.9999 11.1929 38.807 0 25 0C11.1929 0 0 11.1929 0 25C0 38.8071 11.1929 49.9999 25 49.9999Z" fill="url(#paint0_linear)"/>
<path opacity="0.2" d="M28.476 47.4599C14.706 47.4599 3.47605 36.23 3.47605 22.46C3.47605 14.9734 6.81829 8.28888 12.0322 3.60974C4.81295 8.0215 0.00012207 15.9092 0.00012207 25.0001C0.00012207 38.7701 11.23 50 25.0001 50C31.2835 50 37.0321 47.5936 41.4439 43.8503C37.5669 46.123 33.1551 47.4599 28.476 47.4599Z" fill="#222226"/>
<path opacity="0.2" d="M25 0C21.123 0 17.6471 0.935827 14.3049 2.40641C10.5615 6.81817 8.28882 12.4331 8.28882 18.7165C8.28882 32.4866 19.5187 43.7165 33.2888 43.7165C37.1658 43.7165 40.6417 42.7807 43.984 41.3101C47.7273 36.8983 50 31.2834 50 25C50 11.2299 38.7701 0 25 0Z" fill="white"/>
<mask id="mask0" mask-type="alpha" maskUnits="userSpaceOnUse" x="0" y="0" width="50" height="50">
<circle cx="24.9723" cy="24.9723" r="24.9723" fill="#C4C4C4"/>
</mask>
<g mask="url(#mask0)">
<path opacity="0.4" d="M18.2624 -4.79591C26.1501 -5.46435 34.0378 -6.93494 41.3907 -3.19163C42.8613 -2.38949 44.3319 -1.45367 45.8025 -0.517838C47.8078 0.819058 49.8132 2.15595 50.749 4.29499C51.6848 6.43402 51.0164 9.50888 48.7436 10.1773C47.6741 10.4447 46.4709 10.311 45.2677 10.5784C44.3319 10.8458 43.5297 11.5142 42.5939 11.7816C42.0592 11.9153 41.5244 11.7816 41.1233 11.7816C39.9201 11.7816 38.5832 12.8511 37.5137 12.3164C36.979 12.049 36.7116 11.3805 37.1126 10.9795C37.6474 10.4447 38.8506 10.4447 39.5191 9.90995C40.1875 9.37519 41.257 8.70675 41.7918 8.0383C42.3265 7.50354 42.3265 6.7014 42.1928 6.03295C41.6581 3.22547 38.7169 2.69071 36.3105 2.28964C33.7704 1.88858 30.9629 0.952747 28.8239 2.55702C28.5565 2.69071 28.2891 2.95809 28.2891 3.22547C28.1554 3.89392 28.9576 4.29499 29.626 4.56237C31.0966 5.23082 32.5672 5.89926 33.9041 6.83509C34.3052 7.10247 34.5725 7.36985 34.7062 7.77092C34.9736 8.70675 33.6367 9.37519 32.5672 9.37519C30.0271 9.37519 27.487 8.70675 25.4816 7.23616C24.2784 6.43402 22.9415 5.23082 21.471 5.36451C20.4014 5.4982 19.4656 6.30033 18.3961 6.7014C15.7223 7.63723 12.9148 6.03295 10.6421 4.29499C10.3747 4.02761 9.97365 3.76023 9.70627 3.76023C9.43889 3.76023 9.17151 3.76023 8.90413 3.89392C7.96831 4.1613 6.89879 4.82975 6.7651 5.89926C6.36403 7.90461 10.3747 8.97412 11.4442 10.311C12.2464 11.3805 13.0485 12.7174 14.2517 12.8511C14.9202 12.9848 15.5886 12.7174 16.2571 12.5837C17.1929 12.4501 17.995 12.7174 18.9309 12.8511C22.5405 13.6533 26.2838 14.5891 29.8934 15.3912C31.7651 15.7923 33.6367 16.1934 35.5084 16.1934C40.9896 16.1934 46.4709 12.7174 51.6848 14.4554C51.8185 16.1934 49.8132 16.9955 48.0752 17.3966C43.3961 18.3324 38.5832 19.4019 33.9041 20.3377C32.0324 20.7388 30.1608 21.1399 28.2891 21.0062C25.0806 20.8725 22.0057 19.1345 18.6635 19.2682C16.5244 19.4019 14.3854 20.2041 12.2464 20.4714C8.36938 21.0062 4.49238 19.6693 0.48169 19.0008C-0.855206 18.8672 -2.1921 18.7335 -3.39531 19.2682C-4.59852 19.803 -5.40065 21.4073 -4.86589 22.6105C-4.33114 23.68 -2.99424 24.0811 -1.92472 24.0811C-0.721517 24.0811 0.48169 24.0811 1.55121 24.4821C2.35334 24.8832 3.02179 25.5516 3.82393 26.0864C4.49238 26.4875 5.29452 26.6212 6.09665 26.6212C8.77045 26.7548 11.4442 25.9527 14.2517 25.819C19.733 25.6853 25.0806 28.7602 30.2945 27.557C30.9629 27.4233 32.0324 27.2896 32.1661 28.0917C32.2998 28.6265 31.6314 29.0276 31.0966 29.2949C24.0111 31.7014 16.3908 32.1024 8.90413 33.0383C8.50307 33.0383 7.96831 33.1719 7.70093 33.4393C7.03248 33.9741 7.16617 35.1773 7.70093 35.8457C8.36938 36.5142 9.3052 36.6479 10.241 36.6479C12.6474 36.7816 15.0539 35.8457 17.3266 36.2468C18.5298 36.3805 19.733 36.7816 20.9362 37.1826C28.5565 39.0543 36.5779 35.311 44.4656 35.712C47.6741 35.8457 51.15 36.6479 53.8238 34.9099C54.3586 34.5088 54.7597 34.1078 54.7597 33.573C54.8934 32.1024 53.0217 31.434 51.6848 31.434C49.011 31.3003 46.4709 31.434 43.7971 31.7014C43.3961 31.835 42.7276 31.835 42.0592 31.7014C41.5244 31.434 40.9896 31.0329 40.5886 30.6318C39.6527 29.696 38.7169 28.8939 37.7811 27.9581C39.118 26.7548 41.1233 27.1559 42.8613 27.2896C47.4067 27.557 51.6848 24.6158 56.0966 23.68C57.8345 23.2789 59.9736 23.4126 60.9094 24.8832C61.5778 26.0864 61.1768 27.557 61.3105 29.0276C61.5778 31.3003 63.4495 33.1719 63.3158 35.311C63.1821 36.5142 62.5137 37.5837 61.5778 38.5195C57.9682 42.6639 52.3533 44.9366 46.872 44.4019C44.1982 44.1345 41.5244 43.3324 38.8506 43.1987C36.0431 43.065 33.102 43.7334 30.5619 45.0703C30.4282 45.204 30.1608 45.3377 30.0271 45.4714C29.8934 45.7388 30.0271 46.0061 30.1608 46.2735C31.2303 48.8136 33.7704 50.6853 36.4442 51.0864C37.2463 51.22 38.0485 51.22 38.8506 51.4874C39.6527 51.7548 40.0538 52.6906 39.7864 53.4928C39.5191 54.0275 38.8506 54.1612 38.3158 54.2949C35.3747 54.9634 32.4335 55.3644 29.4923 55.6318C27.0859 55.7655 24.1448 55.3644 23.3426 53.0917C22.9415 52.0222 23.2089 50.6853 23.61 49.6158C24.0111 48.5462 24.4121 47.343 24.2784 46.1398C24.1448 44.9366 23.0752 43.7334 22.0057 43.8671C20.5351 44.0008 20.0004 45.7388 18.7972 46.5409C17.4603 47.4767 15.5886 46.942 13.9843 47.0757C12.3801 47.2094 10.9095 47.8778 9.43889 48.2789C7.96831 48.6799 6.09665 48.8136 4.89345 47.7441C4.49238 47.343 4.09131 46.6746 4.49238 46.1398C4.62607 46.0061 4.89345 45.8725 5.16083 45.7388C8.36938 44.9366 11.4442 44.0008 14.6528 43.1987C15.4549 42.9313 16.5244 42.2628 15.9897 41.4607C15.856 41.1933 15.4549 41.0596 15.1875 41.0596C12.5138 40.3912 9.83996 41.0596 7.03248 41.327C4.225 41.5944 1.28383 41.327 -0.587827 39.3217C-2.32579 37.3163 -2.32579 34.1078 -4.06376 32.1024C-5.13327 30.7655 -6.87124 30.0971 -8.07444 28.7602C-10.2135 26.4875 -10.0798 23.0115 -9.81241 19.803C-9.54503 17.1292 -9.14396 14.3217 -7.27231 12.5837C-6.0691 11.7816 -4.19745 11.1132 -3.39531 9.50888C-3.12793 8.84044 -3.12793 8.17199 -2.99424 7.50354C-2.32579 3.09178 1.28383 -0.384149 5.29452 -2.2558C9.3052 -3.99377 13.8507 -4.39484 18.2624 -4.79591Z" fill="#8487B2"/>
</g>
</g>
<defs>
<linearGradient id="paint0_linear" x1="-0.0776737" y1="25.0303" x2="49.9535" y2="25.0303" gradientUnits="userSpaceOnUse">
<stop stop-color="#B4B6E6"/>
<stop offset="1" stop-color="#7983E6"/>
</linearGradient>
<clipPath id="clip0">
<rect width="50" height="50" fill="white"/>
</clipPath>
</defs>
</svg>
