<svg width="50" height="50" viewBox="0 0 50 50" fill="none" xmlns="http://www.w3.org/2000/svg">
<g clip-path="url(#clip0)">
<path d="M25 50.0009C38.8071 50.0009 50 38.808 50 25.0009C50 11.1937 38.8071 0.000854492 25 0.000854492C11.1929 0.000854492 0 11.1937 0 25.0009C0 38.808 11.1929 50.0009 25 50.0009Z" fill="#56CEE3"/>
<g style="mix-blend-mode:multiply" opacity="0.2">
<path d="M29.2548 46.876C24.1987 46.8811 19.2606 45.3499 15.0955 42.4856C10.9303 39.6213 7.73502 35.5591 5.9334 30.838C4.13178 26.117 3.80899 20.96 5.00787 16.0514C6.20674 11.1427 8.87063 6.71435 12.6461 3.35364C9.59985 5.07851 6.95108 7.42502 4.87221 10.2405C2.79333 13.056 1.33093 16.2773 0.580154 19.6949C-0.170627 23.1126 -0.192967 26.6499 0.514602 30.0767C1.22217 33.5035 2.64379 36.743 4.68695 39.5845C6.73011 42.4259 9.34903 44.8057 12.3733 46.5688C15.3976 48.332 18.7594 49.439 22.2401 49.8179C25.7208 50.1969 29.2423 49.8392 32.5755 48.7681C35.9087 47.6971 38.979 45.9367 41.5864 43.6015C37.8315 45.748 33.5806 46.8767 29.2548 46.876V46.876Z" fill="#222226"/>
</g>
<g style="mix-blend-mode:overlay" opacity="0.2">
<path d="M25.0408 1.45265e-05C21.7209 -0.00281143 18.4339 0.658172 15.3735 1.94405C11.4759 6.11318 9.12727 11.4921 8.7195 17.1831C8.31173 22.874 9.86953 28.5325 13.1329 33.2141C16.3962 37.8956 21.1677 41.3169 26.6507 42.9069C32.1337 44.4969 37.9966 44.1593 43.2606 41.9506C46.5864 38.4033 48.8013 33.9613 49.6323 29.1717C50.4633 24.3821 49.8742 19.4542 47.9375 14.9951C46.0008 10.536 42.8011 6.74043 38.7327 4.07602C34.6642 1.41162 29.9048 -0.00523352 25.0406 1.45265e-05H25.0408Z" fill="white"/>
</g>
<mask id="mask0" mask-type="alpha" maskUnits="userSpaceOnUse" x="0" y="0" width="50" height="50">
<ellipse cx="24.9529" cy="25.0633" rx="24.9529" ry="24.9367" fill="#C4C4C4"/>
</mask>
<g mask="url(#mask0)">
<g style="mix-blend-mode:multiply">
<path d="M11.9139 -3.14126C15.2324 -4.44465 19.4667 -5.17553 21.9762 -2.64741C24.244 -0.363001 23.7993 3.63999 21.8316 6.18842C19.8639 8.73685 16.7947 10.1439 13.8055 11.337C11.4722 12.266 6.48269 14.0252 9.32604 17.5274C11.2443 19.8887 15.3106 18.664 17.7748 20.4479C19.9454 22.0197 18.5103 23.6254 19.0994 25.4905C19.7878 27.6644 21.0107 27.0844 23.1433 27.3736C25.1586 27.6466 26.5827 29.904 26.4088 31.8658C26.2102 34.1281 24.4475 34.4842 23.0803 36.1033C22.4528 36.8475 22.1076 37.9637 22.6085 38.8005C23.15 39.707 24.3868 39.8741 25.4431 39.8425C28.2931 39.7499 31.0621 38.9224 33.8828 38.5075C36.7035 38.0925 39.7591 38.1476 42.178 39.653C44.3389 40.997 45.7007 43.3293 46.5581 45.7216C47.1966 47.5078 47.6031 49.4696 47.093 51.2964C46.4228 53.7094 44.3036 55.4303 42.151 56.711C32.3201 62.5601 19.1644 62.2876 9.58508 56.0341C6.43921 53.9796 3.44022 50.7751 3.77413 47.0338C3.88938 45.7371 4.16233 43.9825 2.94169 43.5336C5.65856 42.0768 8.37551 40.6193 11.0926 39.161C11.6927 38.8383 12.3111 38.5023 12.733 37.9679C13.789 36.6328 13.1446 34.5063 11.7761 33.4947C10.4075 32.4831 8.57848 32.3512 6.88143 32.4921C5.18437 32.6329 3.48962 32.9995 1.79282 32.8461C-3.01383 32.4152 -6.39431 28.0921 -9.16306 24.1411C-11.4423 20.887 -10.6162 18.1784 -8.77719 15.0754C-6.51162 11.2529 -6.52063 6.73575 -2.46101 4.19863C2.09723 1.32007 6.90884 -1.13674 11.9139 -3.14126Z" fill="#56CEE3"/>
</g>
<g style="mix-blend-mode:multiply">
<path d="M28.4481 0.505383C29.6623 1.58101 31.4579 1.93732 32.4378 3.22735C33.9635 5.23668 32.6317 8.13243 31.0093 10.0605C29.5172 11.8308 27.7777 13.4072 26.5231 15.3512C25.2685 17.2953 24.5395 19.7692 25.3452 21.9386C26.4555 24.938 29.9242 26.2414 33.0425 26.9563C36.1609 27.6713 39.6319 28.3273 41.5726 30.8691C44.1386 34.2294 42.936 39.5651 45.8514 42.6297C47.5505 44.4182 50.2809 44.9031 52.716 44.4948C58.5133 43.5228 62.9838 37.5241 62.2568 31.6946C61.5298 25.865 55.7227 21.1471 49.8611 21.6276C47.8347 21.7944 45.6165 22.4502 43.8968 21.3682C42.4683 20.4661 41.9224 18.5899 42.0915 16.9096C42.2605 15.2294 43.0098 13.6704 43.6666 12.1131C45.4447 7.9026 46.6182 3.21192 45.5463 -1.23067C44.488 -5.60797 39.6926 -11.291 34.7236 -10.6167C30.3618 -10.0241 23.6957 -3.71175 28.4481 0.505383Z" fill="#56CEE3"/>
</g>
</g>
</g>
<defs>
<clipPath id="clip0">
<rect width="50" height="50" fill="white"/>
</clipPath>
</defs>
</svg>
