<svg width="86" height="51" viewBox="0 0 86 51" fill="none" xmlns="http://www.w3.org/2000/svg">
<path d="M44 50C57.8071 50 69 38.8071 69 25C69 11.1929 57.8071 0 44 0C30.1929 0 19 11.1929 19 25C19 38.8071 30.1929 50 44 50Z" fill="url(#paint0_linear)"/>
<g style="mix-blend-mode:multiply" opacity="0.2">
<path d="M34.7671 43.7237C31.4594 41.7456 28.6601 39.0198 26.5934 35.7645C24.5267 32.5092 23.2499 28.8148 22.8653 24.977C22.4806 21.1392 22.9987 17.2645 24.3782 13.6631C25.7577 10.0617 27.9601 6.83349 30.8094 4.23694C27.8754 6.03095 25.3483 8.41886 23.39 11.2476C21.4317 14.0763 20.0854 17.2834 19.4375 20.6634C18.7896 24.0433 18.8544 27.5215 19.6276 30.8749C20.4009 34.2283 21.8656 37.383 23.9278 40.1367C25.9901 42.8904 28.6043 45.1824 31.6031 46.8657C34.6018 48.5491 37.9188 49.5866 41.3414 49.9118C44.7641 50.237 48.2168 49.8427 51.4784 48.7542C54.7399 47.6657 57.7383 45.907 60.2812 43.5909C56.4445 45.939 52.0396 47.1925 47.5427 47.2159C43.0458 47.2394 38.628 46.0318 34.7671 43.7237V43.7237Z" fill="#222226"/>
</g>
<g style="mix-blend-mode:overlay" opacity="0.3">
<path d="M56.9328 3.49428C53.8955 1.67616 50.5023 0.534978 46.9846 0.148526C43.4668 -0.237925 39.9072 0.139445 36.5483 1.2549C32.3858 5.07271 29.657 10.204 28.8174 15.7926C27.9778 21.3812 29.0781 27.0889 31.9347 31.9635C34.7913 36.8381 39.2314 40.5845 44.5142 42.5778C49.7969 44.571 55.6028 44.6904 60.9628 42.9162C63.7966 40.3145 65.9839 37.086 67.3503 33.4882C68.7168 29.8904 69.2245 26.0227 68.8331 22.1936C68.4417 18.3646 67.1619 14.68 65.0959 11.4338C63.0298 8.18754 60.2347 5.46946 56.9333 3.49627L56.9328 3.49428Z" fill="white"/>
</g>
<mask id="mask0" mask-type="alpha" maskUnits="userSpaceOnUse" x="19" y="0" width="50" height="50">
<path d="M69 25C69 38.8071 57.8071 50 44 50C30.1929 50 19 38.8071 19 25C19 11.1929 30.1929 0 44 0C57.8071 0 69 11.1929 69 25Z" fill="#C4C4C4"/>
</mask>
<g mask="url(#mask0)">
<g style="mix-blend-mode:multiply">
<path d="M53.1523 -0.594683C56.4554 -0.551841 59.7297 -1.11817 63.0292 -1.24787C64.0133 -1.34002 65.0059 -1.23386 65.9483 -0.935656C67.6643 -0.280112 68.4692 1.36961 69.6459 2.62377C72.9566 6.15796 78.9705 6.40562 84.1174 7.46553C89.6099 8.56516 94.7523 10.9867 99.1007 14.521C95.1774 16.3679 90.248 15.2429 86.269 13.4893C82.29 11.7357 78.5519 9.36114 74.1514 8.65395C71.2347 8.18445 68.1433 8.47789 65.3573 7.59757C63.2602 6.93264 61.5038 5.65031 59.4506 4.89793C53.7005 2.78516 46.6846 5.09981 40.9784 2.90253C39.8792 2.47822 38.828 1.88665 37.6291 1.77397C36.4302 1.66129 35.0084 2.26929 34.9281 3.29985C34.9367 3.59639 35.0129 3.88705 35.1508 4.14966C35.2886 4.41227 35.4846 4.63989 35.7237 4.81517C38.9329 7.62868 44.6989 5.22189 48.9951 6.61807C50.5329 7.11751 51.818 8.09701 53.3786 8.53893C56.0169 9.28602 59.0391 8.39338 61.628 9.26079C62.9331 9.69742 63.9866 10.5378 65.1691 11.1805C68.5883 13.0385 72.8657 13.1512 76.7855 14.0233C84.3876 15.7141 90.9556 20.3657 98.7706 21.0471C94.5495 23.5231 88.7817 22.553 84.0787 20.8264C79.3756 19.0998 74.8156 16.6766 69.7063 16.4559C66.5234 16.318 63.3329 17.0581 60.1642 16.7494C56.8629 16.4319 53.874 15.0116 50.8424 13.8502C44.0031 11.2563 36.762 9.88451 29.4488 9.7972C33.0882 11.2824 36.8144 12.5447 40.6068 13.5773L55.9166 18.0828C59.6992 19.1978 63.5334 20.3182 67.5212 20.5723C70.2251 20.7448 72.9542 20.5136 75.6464 20.7906C78.3599 21.0578 80.9911 21.8729 83.381 23.1869C86.3763 24.863 88.8462 27.3502 92.2654 28.2563C95.6335 29.1478 99.782 28.4787 102.304 30.5868C96.1424 31.9818 89.4296 32.888 83.527 30.8304C80.5089 29.7781 77.8877 28.0057 74.8567 26.9781C71.8116 25.9458 68.4944 25.7093 65.2477 25.3348C59.8481 24.7121 54.5248 23.6793 49.2108 22.6481C42.5051 21.347 35.3573 19.8311 30.7386 15.4717C29.6663 14.46 27.8073 13.2633 26.779 14.3062C26.5231 14.5935 26.3821 14.9653 26.3832 15.3503C26.2859 17.152 27.7528 18.7823 29.5139 19.7718C31.2751 20.7613 33.337 21.2683 35.2758 21.9767C39.0508 23.3565 42.3914 25.5109 46.1951 26.8308C53.4683 29.3544 61.9141 28.6542 69.0174 31.5082C72.4447 32.8856 75.4535 35.0553 79.0948 35.9415C84.9212 37.3588 91.8849 35.3916 96.7849 38.4393C93.9058 40.2879 90.0669 40.498 86.4701 40.6371C80.8712 40.8525 74.9176 40.9975 70.0774 38.583C67.6051 37.3506 65.5473 35.4925 62.8709 34.6263C59.5145 33.5406 55.7665 34.1821 52.195 33.8822C48.1233 33.5406 44.3231 31.9748 40.2901 31.3856C37.8472 31.0293 35.2904 31.0241 33.0145 30.186C28.7699 28.6237 26.1974 24.4246 21.6954 23.5355C23.636 29.3344 26.7303 35.6539 33.2731 37.8999C39.3146 39.9734 46.3164 37.8266 52.6159 39.2304C55.6141 39.8982 58.2834 41.3349 61.0641 42.5046C67.4052 45.1708 74.3923 46.4654 81.2998 47.7372C84.1778 48.3354 87.0936 48.7345 90.0264 48.9315C86.2784 50.911 81.5419 50.6505 77.1548 50.3236C72.6406 49.9879 68.0741 49.6434 63.7879 48.3869C60.5476 47.4361 57.5253 45.9772 54.2405 45.1432C47.1155 43.3344 39.2665 44.5769 32.2096 42.5826C34.8449 45.9249 40.5821 45.6344 44.9733 47.094C46.7802 47.6949 48.41 48.631 50.1794 49.3106C51.7514 49.8791 53.3644 50.327 55.0044 50.6505C62.1495 52.1909 69.4205 53.0739 76.7263 53.2885C73.0949 56.4415 68.4841 58.2371 63.6788 58.3697C56.5381 58.6162 49.939 55.4676 43.3223 53.157C39.5116 51.8266 35.5595 50.7432 31.9962 48.9808C28.0267 46.9209 24.4324 44.2062 21.3642 40.9505C15.7143 35.1991 11.2293 28.325 10.3165 20.8505C9.96892 18.4479 10.1616 15.9979 10.8805 13.6794C12.5174 8.7772 17.0012 5.01296 21.3091 1.49051C24.6678 -1.25609 28.3695 -4.14354 32.9829 -4.60952C36.9437 -5.00742 40.2814 -4.34601 43.9268 -3.1476C46.9302 -2.16693 49.8511 -0.637525 53.1523 -0.594683Z" fill="#D1992A"/>
</g>
</g>
<path d="M85.4172 41.1279C87.1977 36.5898 80.625 29.3403 68.8475 22.2561C69.0043 23.6297 69.0287 25.1438 68.9542 26.5244C72.6915 29.7206 74.2039 32.4961 73.3778 34.6016C71.5129 39.355 56.7241 37.9881 40.3473 31.5487C23.9705 25.1092 12.2054 16.0353 14.0713 11.2819C15.0217 8.8587 19.3402 8.03567 25.505 8.65295C26.3474 7.70279 27.2623 6.81966 28.2415 6.01154C13.7196 2.64448 2.68847 3.08296 0.814114 7.85937C-1.84651 14.6414 14.9329 27.5863 38.2983 36.7721C61.6636 45.9578 82.7565 47.908 85.4172 41.1279Z" fill="url(#paint1_linear)"/>
<g style="mix-blend-mode:multiply">
<path d="M73.4207 34.4513C73.6436 34.2036 74.1312 34.1877 74.2552 33.8783C75.0813 31.7723 73.2255 28.8192 69.4882 25.623C69.5321 24.6743 69.5218 23.7238 69.4573 22.7763C69.2448 22.6465 69.0626 22.5394 68.8475 22.4086C69.0043 23.7822 69.0254 25.1438 68.9509 26.5244C72.6537 29.6902 74.1915 32.3487 73.4207 34.4513Z" fill="#C9AF81"/>
</g>
<g style="mix-blend-mode:multiply">
<path d="M14.6088 10.3805C14.6018 10.3985 14.6043 10.418 14.5973 10.4354C16.1539 8.6735 20.1256 8.11366 25.5052 8.65302C26.3476 7.70287 27.2625 6.81974 28.2416 6.01161C28.1129 5.98215 27.9922 5.95818 27.8625 5.92871C27.2237 6.50261 26.6166 7.11097 26.044 7.75108C19.8786 7.1338 15.5597 7.95834 14.6088 10.3805Z" fill="#C9AF81"/>
</g>
<g style="mix-blend-mode:multiply">
<path d="M38.8367 35.8722C15.4738 26.6855 -1.3081 13.7416 1.35252 6.96052C1.364 6.93006 1.38545 6.90459 1.39792 6.87512C1.1575 7.17427 0.961263 7.50645 0.815213 7.86147C-1.84541 14.6435 14.934 27.5884 38.2994 36.7741C61.548 45.9135 82.5461 47.8871 85.3718 41.2224C81.0484 46.7764 60.9633 44.5735 38.8367 35.8722Z" fill="#C9AF81"/>
</g>
<defs>
<linearGradient id="paint0_linear" x1="19" y1="25" x2="69" y2="25" gradientUnits="userSpaceOnUse">
<stop offset="0.285" stop-color="#FCBE33"/>
<stop offset="0.96" stop-color="#FC8A33"/>
</linearGradient>
<linearGradient id="paint1_linear" x1="0.536743" y1="24.4953" x2="85.6943" y2="24.4953" gradientUnits="userSpaceOnUse">
<stop stop-color="#FFE1A4"/>
<stop offset="1" stop-color="#FEB86F"/>
</linearGradient>
</defs>
</svg>
