<svg width="50" height="50" viewBox="0 0 50 50" fill="none" xmlns="http://www.w3.org/2000/svg">
<g clip-path="url(#clip0)">
<path d="M25 50C38.8071 50 50 38.8071 50 25C50 11.1929 38.8071 0 25 0C11.1929 0 0 11.1929 0 25C0 38.8071 11.1929 50 25 50Z" fill="url(#paint0_linear)"/>
<g style="mix-blend-mode:multiply" opacity="0.2">
<path d="M28.2743 45.9963C22.6402 45.9969 17.196 43.9596 12.9464 40.2604C8.69674 36.5612 5.92853 31.4498 5.15259 25.8694C4.37664 20.2889 5.64534 14.6161 8.72454 9.89789C11.8037 5.17964 16.4856 1.73437 21.9062 0.197876C17.6041 0.735754 13.5159 2.38328 10.0431 4.97867C6.57017 7.57405 3.832 11.0281 2.09745 15.0015C0.362888 18.9749 -0.308421 23.3312 0.149439 27.6425C0.6073 31.9538 2.17859 36.0719 4.709 39.5924C7.23942 43.1129 10.642 45.9148 14.5825 47.7229C18.523 49.5309 22.8661 50.2831 27.1851 49.9054C31.5042 49.5277 35.6508 48.0332 39.2177 45.5686C42.7846 43.104 45.6492 39.7541 47.5302 35.8479C45.3882 38.9782 42.5148 41.5386 39.1592 43.3071C35.8037 45.0756 32.0674 45.9987 28.2743 45.9963V45.9963Z" fill="#222226"/>
</g>
<g style="mix-blend-mode:overlay" opacity="0.2">
<path d="M25.322 0.00646973C22.1453 1.00977 19.2462 2.73969 16.8547 5.05893C14.4633 7.37818 12.6453 10.2229 11.545 13.3674C10.4448 16.5118 10.0926 19.8694 10.5165 23.1737C10.9403 26.478 12.1285 29.6381 13.9867 32.403C15.8449 35.168 18.322 37.4619 21.2213 39.1025C24.1207 40.7431 27.3626 41.6853 30.6897 41.8544C34.0168 42.0235 37.3375 41.4148 40.3882 40.0766C43.439 38.7384 46.1359 36.7075 48.2648 34.1452C49.7454 30.3805 50.29 26.3127 49.8518 22.2911C49.4137 18.2696 48.006 14.4145 45.7496 11.0569C43.4931 7.69931 40.4554 4.93963 36.8973 3.01485C33.3392 1.09007 29.3671 0.0577248 25.322 0.00646973V0.00646973Z" fill="white"/>
</g>
</g>
<defs>
<linearGradient id="paint0_linear" x1="0.15" y1="25" x2="49.65" y2="25" gradientUnits="userSpaceOnUse">
<stop stop-color="#FFD000"/>
<stop offset="1" stop-color="#C88500"/>
</linearGradient>
<clipPath id="clip0">
<rect width="50" height="50" fill="white"/>
</clipPath>
</defs>
</svg>
