<svg width="50" height="50" viewBox="0 0 50 50" fill="none" xmlns="http://www.w3.org/2000/svg">
<g clip-path="url(#clip0)">
<path d="M24.9984 49.9968C38.8046 49.9968 49.9968 38.8046 49.9968 24.9984C49.9968 11.1922 38.8046 0 24.9984 0C11.1922 0 0 11.1922 0 24.9984C0 38.8046 11.1922 49.9968 24.9984 49.9968Z" fill="url(#paint0_linear)"/>
<g style="mix-blend-mode:multiply" opacity="0.2">
<path d="M28.6086 47.3669C23.5354 47.3678 18.582 45.825 14.4067 42.9432C10.2314 40.0615 7.03187 35.9775 5.23334 31.2338C3.43481 26.49 3.12244 21.3113 4.33772 16.3858C5.553 11.4603 8.2384 7.02127 12.037 3.65857C9.06771 5.45902 6.50605 7.85836 4.51537 10.7037C2.52468 13.549 1.14863 16.7778 0.474945 20.1844C-0.198742 23.591 -0.155303 27.1005 0.602509 30.4894C1.36032 33.8782 2.81588 37.072 4.87639 39.8672C6.9369 42.6623 9.55718 44.9975 12.5702 46.7239C15.5832 48.4503 18.9228 49.53 22.3762 49.8942C25.8296 50.2584 29.321 49.8991 32.6279 48.8392C35.9347 47.7793 38.9844 46.0421 41.5827 43.7383C37.6741 46.1181 33.1847 47.3736 28.6086 47.3669V47.3669Z" fill="#222226"/>
</g>
<g style="mix-blend-mode:overlay" opacity="0.5">
<path d="M43.712 41.3501C46.7264 37.9398 48.752 33.7709 49.5703 29.2934C50.3885 24.816 49.9683 20.2001 48.3549 15.9441C46.7416 11.6881 43.9964 7.95352 40.4157 5.14361C36.8351 2.3337 32.5549 0.555167 28.0373 0C24.6341 0.441123 21.375 1.64718 18.5045 3.52768C15.634 5.40819 13.2266 7.91431 11.463 10.858C9.69929 13.8018 8.62514 17.1067 8.32108 20.5248C8.01702 23.943 8.49096 27.3856 9.70734 30.5944C10.9237 33.8032 12.851 36.6949 15.3445 39.0526C17.838 41.4102 20.833 43.1726 24.1049 44.2075C27.3767 45.2424 30.8405 45.5229 34.2362 45.028C37.632 44.5332 40.8716 43.2757 43.712 41.3501V41.3501Z" fill="white"/>
</g>
<mask id="mask0" mask-type="alpha" maskUnits="userSpaceOnUse" x="0" y="0" width="50" height="50">
<ellipse cx="25.1719" cy="25.0676" rx="24.7613" ry="24.7613" fill="white"/>
</mask>
<g mask="url(#mask0)">
<g style="mix-blend-mode:multiply" opacity="0.5">
<path d="M-3.59335 9.00807C11.4925 9.92477 26.6096 7.82254 40.8729 2.82446C24.2236 15.3893 -0.371461 18.6885 -22.1014 14.3401C-16.8973 16.5934 -10.8958 17.0958 -5.05133 17.3081C13.2578 17.9763 32.7592 15.8199 47.1052 6.19325C45.3219 11.6579 38.8374 14.9227 32.7747 17.3602C24.4486 20.7113 15.7775 23.6038 6.68299 24.9107C-2.41154 26.2176 -11.9929 25.8718 -20.5292 22.9235C-0.65935 30.273 22.607 27.9895 42.9016 21.5171C26.4182 30.2709 6.2696 33.9918 -13.0379 31.8472C2.0413 34.2642 18.364 36.0084 32.1368 30.2898C21.259 35.3889 8.58625 37.7182 -3.8179 36.9031C6.5912 38.6102 17.2319 38.2938 27.5211 35.971C18.6843 40.8288 7.39352 40.7046 -3.14598 40.4125C13.7278 44.1477 32.6387 40.5439 45.9762 31.0536C44.8431 38.5369 36.5388 43.5996 28.6601 47.1602C23.532 49.4777 18.1995 51.5841 12.5111 52.6064C2.86682 54.3389 -7.71087 52.687 -15.5594 47.6499C-23.4078 42.6129 -28.1822 34.1324 -27.1485 25.855C-26.4589 20.3269 -23.9434 12.3685 -17.4379 9.97544C-12.6124 8.20018 -8.60227 8.70548 -3.59335 9.00807Z" fill="#51BCB7"/>
</g>
<g style="mix-blend-mode:multiply" opacity="0.2">
<path d="M46.5282 5.44738C41.3089 3.77929 36.1009 2.69916 30.4975 3.53078C25.6001 4.25803 21.0723 6.20793 15.9985 6.23311C14.189 6.24204 -6.38215 6.9494 -6.30166 6.05972C-6.35572 6.66475 -5.6134 7.11548 -4.93858 7.43058C1.1133 10.2401 8.31399 11.3893 15.3785 11.2411C22.443 11.0928 29.386 9.69802 35.9664 7.71401C26.657 13.6108 14.5289 16.8049 2.48246 16.5345C16.2452 17.8529 30.8324 17.7737 43.2016 12.9392C40.8327 14.9574 38.1152 16.5275 35.1826 17.5723C32.2276 18.6484 29.0287 19.2676 25.8298 19.7837C19.5645 20.7942 13.2455 21.4379 6.90499 21.7117C20.6133 22.9953 34.9903 22.6314 47.5571 18.2196C39.1271 22.2225 30.5694 25.7033 20.8121 27.3738C25.218 26.6194 30.2373 26.5524 34.6932 26.3108C39.734 26.0383 44.922 24.8668 49.6474 23.5443C45.3981 27.8891 38.6872 30.4347 31.8711 31.8486C25.0549 33.2625 17.9681 33.6873 11.0255 34.674C17.6111 35.9506 24.5724 35.67 31.2202 34.6037C37.8681 33.5374 44.2618 31.7081 50.6263 29.8853C46.1513 33.2751 40.3072 35.4321 34.2736 36.7559C28.24 38.0796 21.9694 38.6185 15.733 39.1516C18.962 41.1413 23.4187 41.3821 27.5518 41.2838C33.4267 41.1461 39.2783 40.4939 45.0391 39.3347C35.1021 44.3134 22.752 46.3527 11.0405 44.9497C15.0549 46.9516 20.16 47.1019 24.9184 46.7303C32.6008 46.1513 40.1375 44.3265 47.2327 41.3277C50.4889 39.9308 53.6057 38.2656 56.0229 36.0802C58.1382 34.14 59.8126 31.7695 60.9333 29.1284C63.4537 23.3421 63.2464 16.4744 58.3571 11.6731C55.3749 8.74825 50.9894 6.87225 46.5282 5.44738Z" fill="#51BCB7"/>
</g>
</g>
</g>
<defs>
<linearGradient id="paint0_linear" x1="0" y1="24.9984" x2="49.9968" y2="24.9984" gradientUnits="userSpaceOnUse">
<stop stop-color="#71FFFB"/>
<stop offset="0.997" stop-color="#0068FB"/>
</linearGradient>
<clipPath id="clip0">
<rect width="50" height="50" fill="white"/>
</clipPath>
</defs>
</svg>
