<svg width="50" height="50" viewBox="0 0 50 50" fill="none" xmlns="http://www.w3.org/2000/svg">
<g clip-path="url(#clip0)">
<path d="M25 50C38.8071 50 50 38.8071 50 25C50 11.1929 38.8071 0 25 0C11.1929 0 0 11.1929 0 25C0 38.8071 11.1929 50 25 50Z" fill="#FFD0A6"/>
<path d="M25 50C38.8071 50 50 38.8071 50 25C50 11.1929 38.8071 0 25 0C11.1929 0 0 11.1929 0 25C0 38.8071 11.1929 50 25 50Z" fill="url(#paint0_linear)"/>
<g style="mix-blend-mode:multiply" opacity="0.5">
<path d="M10.2436 9.68009C11.4101 9.20214 12.9425 9.43552 13.6011 10.5535C14.0597 11.3326 13.9916 12.3521 13.6654 13.2011C13.2882 14.0365 12.8255 14.8185 12.287 15.5311C11.2358 17.1089 10.368 18.903 10.2763 20.8267C10.1845 22.7503 11.0214 24.8117 12.6551 25.683C13.2063 26.0078 13.8425 26.0956 14.4463 25.9304C14.8954 25.7465 15.3039 25.4543 15.6439 25.0741C17.7973 22.9453 19.6679 20.4734 22.0927 18.6972C24.5175 16.921 27.7493 15.9273 30.4519 17.1858C30.7512 17.3081 31.0251 17.4991 31.2565 17.7469C31.6855 18.2545 31.7299 19.0012 31.6791 19.6775C31.4839 21.9519 30.5193 24.0519 28.9879 25.5366C27.5472 26.9485 24.9392 28.8369 26.625 31.1808C26.9941 31.6538 27.4774 31.9936 28.015 32.1583C28.5526 32.323 29.121 32.3053 29.6498 32.1074C30.2387 31.8782 30.7384 31.4324 31.3408 31.2413C34.0656 30.3766 34.8887 34.1729 34.6407 36.1822C34.2973 38.9734 32.8123 41.5368 30.8597 43.4196C28.5538 45.6413 25.6159 47.0182 22.617 47.9569C21.0525 48.4461 18.9823 48.6319 18.1577 47.1534C17.5724 46.1052 17.9729 44.7797 18.3884 43.6453C18.8644 42.339 19.3404 41.0323 19.8164 39.7249C20.3804 38.1768 20.8874 36.2489 19.8361 35.0132C19.0131 34.0429 17.57 33.9923 16.3761 34.3326C15.1822 34.6729 14.0727 35.3252 12.8516 35.5292C8.32368 36.2828 3.41777 31.7384 5.4187 26.7734C5.64171 26.2221 5.99624 25.7019 6.0138 25.1031C6.07202 23.2105 3.28531 21.706 2.91846 19.6559C2.53034 17.4918 3.73041 15.3585 5.14979 13.7374C6.51835 12.1774 8.33385 10.462 10.2436 9.68009Z" fill="#FFD0A6"/>
</g>
<g style="mix-blend-mode:multiply" opacity="0.5">
<path d="M32.0819 1.37829C27.898 1.40484 24.3197 3.77712 20.2704 3.99234C19.4805 4.09164 18.7139 4.35779 18.0104 4.77704C17.5605 4.97485 17.1406 5.2509 16.7656 5.59528C16.5795 5.76978 16.4312 5.99053 16.3324 6.24045C16.2335 6.49036 16.1867 6.76273 16.1955 7.03647C16.2414 7.5525 16.5439 7.98259 16.7558 8.44412C17.7997 10.7207 16.2164 13.1981 15.7418 15.3905C15.6456 15.7479 15.6245 16.1258 15.6802 16.4941C15.8724 17.4406 16.9147 17.8962 17.7467 17.6611C18.5787 17.4259 19.228 16.7076 19.8105 15.9935C21.5708 13.8336 23.1415 11.4082 25.3023 9.77979C27.463 8.15134 30.4641 7.50045 32.6114 9.15091C34.5701 10.6553 35.253 13.6278 35.0756 16.3037C34.8982 18.9796 34.0317 21.5259 33.5398 24.1497C33.3787 25.0088 33.2795 25.9875 33.7455 26.689C34.5984 27.9712 36.3613 27.248 37.772 27.3668C38.6131 27.4673 39.3953 27.9037 39.9787 28.5982C40.5621 29.2926 40.9088 30.1998 40.9567 31.1576C40.9764 32.0562 40.7337 33.0152 41.087 33.8195C41.6177 35.0259 43.1797 35.0961 44.2307 34.469C46.182 33.3034 47.0199 30.6922 47.6932 28.3115C48.199 26.5243 48.7043 24.7376 49.2093 22.9514C49.5589 21.7167 49.9122 20.426 49.7274 19.1463C49.5389 17.8427 48.8175 16.7251 48.0625 15.7196C46.0728 13.0719 43.7148 10.811 41.0818 9.02653C39.5108 7.96197 37.7551 6.97359 36.8704 5.15542C36.4823 4.35674 36.2827 3.43019 35.7634 2.73423C34.9022 1.57953 33.4159 1.3699 32.0819 1.37829Z" fill="#FFD0A6"/>
</g>
<g style="mix-blend-mode:multiply" opacity="0.5">
<path d="M32.1872 10.8248C31.7403 9.90555 30.9901 9.17158 30.0519 9.38948C29.1419 9.59984 28.9422 10.4887 28.565 11.4653C27.9227 13.124 26.7317 12.675 25.8154 13.7874C25.7051 13.9082 25.6284 14.0685 25.5963 14.2457C25.5641 14.4228 25.578 14.6079 25.6361 14.7748C25.8032 15.1519 26.2396 15.2203 26.5708 15.0783C26.8876 14.8932 27.1931 14.6806 27.4852 14.4421C28.0761 14.0626 28.7734 14.04 29.4412 14.0476C30.109 14.0551 30.7974 14.0812 31.4184 13.7782C32.0395 13.4752 32.5784 12.7496 32.5317 11.9321C32.4887 11.5351 32.3708 11.156 32.1872 10.8248V10.8248Z" fill="#FFD0A6"/>
</g>
<g style="mix-blend-mode:multiply" opacity="0.5">
<path d="M15.722 37.9132C16.2798 37.9062 16.8995 38.0805 17.2033 38.6119C17.3951 39.0095 17.4569 39.4712 17.3779 39.9154C17.328 40.332 17.2343 40.7403 17.0988 41.1316C16.916 41.654 16.6823 42.1516 16.4021 42.6151C15.8393 43.6284 15.0322 44.4375 14.0765 44.9465C9.95111 46.939 11.0659 37.9708 15.722 37.9132Z" fill="#FFD0A6"/>
</g>
<g style="mix-blend-mode:multiply" opacity="0.2">
<path d="M28.313 47.1013C23.4173 47.1048 18.6285 45.6697 14.5416 42.9742C10.4548 40.2788 7.25003 36.4418 5.32567 31.9402C3.40132 27.4385 2.84218 22.4706 3.71774 17.6539C4.5933 12.8371 6.86496 8.38376 10.2504 4.84729C7.44973 6.89259 5.10561 9.49867 3.36734 12.4996C1.62908 15.5005 0.534744 18.8305 0.154027 22.2776C-0.22669 25.7246 0.114555 29.2132 1.15603 32.5211C2.1975 35.8291 3.91637 38.8839 6.20321 41.4911C8.49005 44.0983 11.2947 46.2008 14.4387 47.6646C17.5826 49.1284 20.9969 49.9215 24.4642 49.9934C27.9315 50.0653 31.3757 49.4144 34.5777 48.0821C37.7796 46.7499 40.669 44.7655 43.0619 42.2554C38.7888 45.4034 33.6205 47.1015 28.313 47.1013Z" fill="#222226"/>
</g>
<g style="mix-blend-mode:overlay" opacity="0.2">
<path d="M24.9998 0.000994044C21.3893 0.00338313 17.8226 0.792328 14.5478 2.31296C10.7481 6.6063 8.54183 12.0766 8.29974 17.8048C8.05766 23.533 9.79449 29.17 13.2184 33.7686C16.6424 38.3672 21.5447 41.6472 27.1019 43.0576C32.659 44.4679 38.5322 43.9227 43.7347 41.5133C46.9216 37.9094 48.9997 33.4616 49.7189 28.7048C50.4382 23.9479 49.768 19.0846 47.7889 14.6996C45.8099 10.3146 42.6063 6.59462 38.5633 3.98705C34.5204 1.37947 29.8103 -0.00469745 24.9994 0.000994044H24.9998Z" fill="white"/>
</g>
</g>
<defs>
<linearGradient id="paint0_linear" x1="-0.25" y1="23.7" x2="64" y2="27" gradientUnits="userSpaceOnUse">
<stop stop-color="#FFD0A6"/>
<stop offset="0.993" stop-color="#FF77A6"/>
</linearGradient>
<clipPath id="clip0">
<rect width="50" height="50" fill="white"/>
</clipPath>
</defs>
</svg>
